# xmcd
#
# Track frame offsets: 
#        150
#        12956
#        26788
#        41522
#        51982
#        64769
#        75265
#        90341
#        102607
#        112939
#        126303
#        132995
#        143529
#
# Disc length: 2031 seconds
#
# Revision: 0
# Processed by: cddbd v1.5.2PL0 Copyright (c) Steve Scherf et al.
# Submitted via: ExactAudioCopy v0.99pb3
#
DISCID=a607ed0d
DTITLE=Acoustic Blue - Bein' Country
DYEAR=2012
DGENRE=Bluegrass
TTITLE0=Your Love is Like a Flower
TTITLE1=City Folks Call Us Poor
TTITLE2=Bein' Country
TTITLE3=You Can't Make a Heel Toe the Mark
TTITLE4=Once More With Feeling
TTITLE5=I Don't Care Anymore
TTITLE6=Forty Miles from Poplar Bluff
TTITLE7=Going Like Wildfire
TTITLE8=In A Gospel Way
TTITLE9=I Always Get Lucky With You
TTITLE10=Struttin' To Ferrum
TTITLE11=There She Goes
TTITLE12=I'm Movin' On
EXTD=
EXTT0=
EXTT1=
EXTT2=
EXTT3=
EXTT4=
EXTT5=
EXTT6=
EXTT7=
EXTT8=
EXTT9=
EXTT10=
EXTT11=
EXTT12=
PLAYORDER=
